<svg width="25" height="26" viewBox="0 0 25 26" fill="none" xmlns="http://www.w3.org/2000/svg">
<path d="M10.3507 17.3579C10.6358 17.2685 10.9397 17.4273 11.0291 17.7124C11.1184 17.9975 10.9596 18.3009 10.6746 18.3903L9.26599 18.832C8.75718 18.9983 8.3164 19.326 8.01011 19.7651C7.83915 20.0101 7.50173 20.0702 7.25668 19.8993C7.01161 19.7283 6.95155 19.3909 7.12248 19.1459C7.56462 18.512 8.20172 18.0397 8.93683 17.8012L8.94211 17.7996L10.3507 17.3579Z" fill="#C6232F"/>
<path d="M14.0568 17.7107C14.1478 17.4261 14.4522 17.2693 14.7368 17.3604L16.0862 17.792C16.8278 18.0291 17.4696 18.5063 17.9095 19.1488C18.0783 19.3954 18.015 19.7324 17.7684 19.9012C17.5219 20.0699 17.1854 20.0066 17.0166 19.7601C16.7126 19.3162 16.269 18.9866 15.7565 18.8228V18.8223L14.4071 18.3906C14.1225 18.2996 13.9657 17.9952 14.0568 17.7107Z" fill="#C6232F"/>
<path d="M0.600708 19.4548V14.6527C0.600707 13.605 0.921625 12.5824 1.52003 11.7225C2.11722 10.8643 2.96221 10.2087 3.94198 9.84418L5.59043 9.2091C5.86924 9.10174 6.18256 9.24097 6.28997 9.51977C6.3973 9.79857 6.25809 10.1119 5.9793 10.2193L4.33085 10.8544L4.32451 10.8565C3.54931 11.1438 2.88043 11.6615 2.40819 12.3401C1.93594 13.0187 1.68277 13.8259 1.68277 14.6527V19.4548C1.68277 19.7536 1.44054 19.9959 1.14174 19.9959C0.842935 19.9959 0.600708 19.7536 0.600708 19.4548Z" fill="#C6232F"/>
<path d="M23.3239 19.4547V15.2834L23.3149 15.0931C23.2777 14.6507 23.1335 14.2227 22.8938 13.8468C22.62 13.4173 22.2318 13.0726 21.7732 12.8508L21.7695 12.8487L20.0761 12.015C19.8082 11.883 19.6976 11.5586 19.8294 11.2906C19.9614 11.0227 20.2858 10.9121 20.5538 11.0439L22.2477 11.8781H22.2471C22.8851 12.1873 23.4251 12.6672 23.8063 13.2651C24.1881 13.8639 24.3955 14.5574 24.406 15.2675V19.4547C24.406 19.7535 24.1637 19.9957 23.8649 19.9957C23.5662 19.9956 23.3239 19.7534 23.3239 19.4547Z" fill="#C6232F"/>
<path d="M21.9212 21.0732C22.0647 21.0732 22.2023 21.1303 22.3038 21.2317L23.9268 22.8548C24.1381 23.0661 24.1381 23.4086 23.9268 23.6199L22.3038 25.243C22.2023 25.3444 22.0647 25.4015 21.9212 25.4015H18.9456C18.6468 25.4015 18.4045 25.1592 18.4045 24.8604C18.4045 24.5616 18.6468 24.3194 18.9456 24.3194H21.6972L22.7793 23.2374L21.6972 22.1553H18.9456C18.6468 22.1553 18.4045 21.9131 18.4045 21.6143C18.4045 21.3155 18.6468 21.0732 18.9456 21.0732H21.9212Z" fill="#C6232F"/>
<path d="M10.2891 20.5322C10.5878 20.5322 10.83 20.7745 10.8301 21.0733V24.8605H18.4045V21.6143H11.9121C11.6134 21.6142 11.3711 21.372 11.3711 21.0733C11.3712 20.7746 11.6134 20.5323 11.9121 20.5322H18.9455C19.2442 20.5322 19.4864 20.7746 19.4866 21.0733V25.4015C19.4866 25.5449 19.4295 25.6826 19.3281 25.784C19.2266 25.8855 19.089 25.9425 18.9455 25.9425H2.71466V25.942C2.35936 25.9432 2.0073 25.875 1.67856 25.7402C1.34896 25.6049 1.04923 25.4056 0.79675 25.1542C0.544341 24.9029 0.343805 24.6045 0.207113 24.2756C0.0704091 23.9466 0 23.5936 0 23.2374C1.35891e-07 22.8811 0.070409 22.5282 0.207113 22.1992C0.343805 21.8703 0.544341 21.5718 0.79675 21.3205C1.04923 21.0692 1.34896 20.8698 1.67856 20.7346C2.0073 20.5997 2.35936 20.5315 2.71466 20.5328L10.2891 20.5322ZM1.08206 23.2374C1.08206 23.4511 1.1242 23.6629 1.20622 23.8603C1.28824 24.0577 1.40875 24.2368 1.56021 24.3876C1.71168 24.5384 1.89136 24.6578 2.08909 24.7389C2.28684 24.8201 2.49879 24.8614 2.71254 24.8605H9.74803V21.6143H2.71254C2.49879 21.6133 2.28684 21.6547 2.08909 21.7358C1.89136 21.8169 1.71168 21.9364 1.56021 22.0872C1.40875 22.2379 1.28824 22.4171 1.20622 22.6144C1.1242 22.8118 1.08206 23.0236 1.08206 23.2374Z" fill="#C6232F"/>
<path d="M24.3555 22.6963C24.6543 22.6963 24.8965 22.9385 24.8965 23.2373C24.8965 23.5361 24.6543 23.7783 24.3555 23.7783H23.312C23.0132 23.7783 22.771 23.5361 22.771 23.2373C22.771 22.9385 23.0132 22.6963 23.312 22.6963H24.3555Z" fill="#C6232F"/>
<path d="M3.84302 19.455V15.1685C3.84302 14.8697 4.08524 14.6274 4.38405 14.6274C4.68285 14.6274 4.92508 14.8697 4.92508 15.1685V19.455C4.92508 19.7538 4.68285 19.996 4.38405 19.996C4.08524 19.996 3.84302 19.7538 3.84302 19.455Z" fill="#C6232F"/>
<path d="M20.0739 19.4554V15.71C20.0739 15.4112 20.3161 15.1689 20.6149 15.1689C20.9137 15.1689 21.1559 15.4112 21.1559 15.71V19.4554C21.1559 19.7542 20.9137 19.9965 20.6149 19.9965C20.3161 19.9965 20.0739 19.7542 20.0739 19.4554Z" fill="#C6232F"/>
<path d="M8.48011 0.0203609C8.91456 -0.000260118 9.34885 0.0640172 9.75819 0.211623C10.177 0.362684 10.5611 0.59694 10.8873 0.900061C11.2134 1.2032 11.4753 1.56907 11.6565 1.97578C11.8377 2.38238 11.935 2.82146 11.9424 3.26654C12.0056 4.23056 11.9445 5.19869 11.7601 6.14709L11.7596 6.15079C11.6524 6.68348 11.38 7.42843 10.8709 8.05285C10.3511 8.69037 9.5675 9.21728 8.48064 9.21733C7.39369 9.21733 6.61024 8.6904 6.09039 8.05285C5.58123 7.42838 5.30832 6.68353 5.20118 6.15079L5.20065 6.14709C5.01448 5.1897 4.95372 4.21213 5.01995 3.23906C5.03081 2.80336 5.12725 2.37404 5.30473 1.97578C5.48597 1.56911 5.74738 1.20318 6.07348 0.900061C6.39962 0.596932 6.78372 0.362689 7.20256 0.211623C7.61171 0.0640583 8.04585 -0.000152677 8.48011 0.0203609ZM8.51128 1.10136C8.49094 1.10251 8.47033 1.10251 8.44999 1.10136C8.15095 1.08443 7.85152 1.12813 7.56977 1.22975C7.28802 1.33137 7.02938 1.48868 6.81 1.69258C6.59068 1.89647 6.41517 2.1429 6.29327 2.41642C6.1714 2.68993 6.10592 2.98511 6.10096 3.2845C6.1008 3.29378 6.1 3.30324 6.09937 3.3125C6.03959 4.19079 6.09435 5.07316 6.2621 5.93734C6.34315 6.3404 6.55562 6.91138 6.92888 7.36916C7.2915 7.81388 7.78825 8.13527 8.48064 8.13527C9.17295 8.13522 9.66981 7.81385 10.0324 7.36916C10.4056 6.91141 10.6176 6.34036 10.6986 5.93734C10.8664 5.07314 10.9212 4.19081 10.8614 3.3125C10.8607 3.30324 10.8605 3.29378 10.8603 3.2845C10.8554 2.98515 10.7898 2.6899 10.668 2.41642C10.5461 2.14285 10.3701 1.89649 10.1507 1.69258C9.93136 1.48867 9.67274 1.33137 9.39098 1.22975C9.10934 1.1282 8.81019 1.08446 8.51128 1.10136Z" fill="#C6232F"/>
<path d="M17.6394 2.47645C18.0356 2.45803 18.4317 2.5167 18.8049 2.65133C19.1878 2.78941 19.5387 3.00354 19.8368 3.28059C20.1349 3.55764 20.3738 3.89216 20.5395 4.26385C20.7014 4.62712 20.7897 5.01878 20.8 5.41618L20.8169 5.74587C20.8441 6.51457 20.7837 7.28421 20.6367 8.03996L20.6362 8.04366C20.5387 8.52831 20.2911 9.20567 19.8273 9.77453C19.3528 10.3565 18.635 10.8402 17.6394 10.8402C16.6438 10.8402 15.926 10.3565 15.4515 9.77453C14.9877 9.20567 14.7401 8.52829 14.6426 8.04366L14.6421 8.04049C14.4741 7.17662 14.419 6.2942 14.4788 5.41618C14.4891 5.01879 14.5774 4.62711 14.7393 4.26385C14.905 3.89215 15.1439 3.55764 15.442 3.28059C15.7401 3.00354 16.091 2.78941 16.4739 2.65133C16.8471 2.51671 17.2432 2.45804 17.6394 2.47645ZM17.67 3.55745C17.6497 3.5586 17.6291 3.5586 17.6088 3.55745C17.3479 3.54269 17.0868 3.58083 16.8411 3.66946C16.5953 3.7581 16.3699 3.89526 16.1785 4.07312C15.9871 4.25099 15.8337 4.46585 15.7273 4.70449C15.621 4.9431 15.5641 5.20095 15.5598 5.46214C15.5597 5.47131 15.5594 5.48048 15.5588 5.48962C15.5054 6.27276 15.554 7.05964 15.7035 7.8302L15.7358 7.96969C15.8239 8.30936 16.0031 8.73889 16.29 9.09084C16.6073 9.47997 17.0384 9.75814 17.6394 9.75815C18.2404 9.75815 18.6715 9.47998 18.9888 9.09084C19.3167 8.68867 19.5039 8.18519 19.5753 7.8302C19.7248 7.05963 19.7739 6.27277 19.7206 5.48962C19.7199 5.48047 19.7191 5.47132 19.719 5.46214C19.7147 5.20095 19.6578 4.9431 19.5515 4.70449C19.4451 4.46586 19.2917 4.25098 19.1003 4.07312C18.9089 3.89526 18.6835 3.75809 18.4377 3.66946C18.192 3.58082 17.9309 3.54268 17.67 3.55745Z" fill="#C6232F"/>
<path d="M17.7715 0.000640202C18.2211 0.010819 18.66 0.14106 19.0422 0.377881C19.4245 0.614739 19.7364 0.949871 19.9457 1.34793C20.1549 1.74596 20.2537 2.1927 20.2321 2.64186C20.2105 3.09109 20.0691 3.52633 19.8226 3.9025C19.6588 4.15239 19.3238 4.2221 19.0739 4.05836C18.8241 3.89462 18.754 3.55957 18.9175 3.30969C19.0582 3.09502 19.1392 2.84644 19.1516 2.59008C19.1639 2.33369 19.1073 2.07864 18.9878 1.85145C18.8684 1.62424 18.6904 1.43292 18.4721 1.29774C18.2539 1.16258 18.0033 1.08848 17.7467 1.0827C17.4902 1.07695 17.2368 1.13983 17.0128 1.26498C16.7888 1.39017 16.6019 1.57284 16.4723 1.79438C16.3428 2.01596 16.275 2.26841 16.2758 2.52509C16.2766 2.78175 16.3462 3.03341 16.4771 3.25421C16.6294 3.51119 16.5443 3.84308 16.2874 3.99548C16.0304 4.14781 15.6985 4.06326 15.5461 3.80634C15.3168 3.41944 15.1951 2.97801 15.1937 2.52826C15.1924 2.07863 15.3113 1.63677 15.5382 1.2486C15.7653 0.860352 16.0924 0.539677 16.485 0.320291C16.8776 0.10095 17.322 -0.00949851 17.7715 0.000640202Z" fill="#C6232F"/>
<path d="M12.5377 9.52452C12.9086 9.50747 13.2793 9.56228 13.6288 9.68831C13.9876 9.81773 14.3167 10.0183 14.5962 10.2779C14.8756 10.5377 15.0997 10.8514 15.255 11.1999C15.4066 11.5399 15.4893 11.9064 15.4991 12.2783L15.515 12.5842C15.5403 13.2975 15.4839 14.0116 15.3475 14.7129L15.347 14.7166C15.2559 15.1693 15.0251 15.802 14.5914 16.3339C14.1471 16.8788 13.4729 17.333 12.5383 17.333C11.6036 17.333 10.9295 16.8788 10.4851 16.3339C10.0514 15.802 9.82062 15.1693 9.72957 14.7166L9.72851 14.7129C9.57267 13.9114 9.52195 13.0929 9.5774 12.2783C9.58722 11.9064 9.66947 11.5399 9.82097 11.1999C9.97628 10.8514 10.2009 10.5377 10.4804 10.2779C10.7598 10.0183 11.0889 9.81772 11.4478 9.68831C11.7969 9.56241 12.1672 9.50761 12.5377 9.52452ZM12.5689 10.605C12.5485 10.6061 12.528 10.6061 12.5076 10.605C12.2722 10.5917 12.0362 10.6264 11.8144 10.7064C11.5928 10.7864 11.3895 10.9101 11.2169 11.0705C11.0441 11.231 10.9055 11.4252 10.8095 11.6406C10.7136 11.8559 10.6623 12.0885 10.6584 12.3242C10.6583 12.3334 10.6574 12.3426 10.6568 12.3517C10.6077 13.0726 10.6531 13.797 10.791 14.5063H10.7905C10.8559 14.8291 11.0269 15.2857 11.3236 15.6497C11.6107 16.0018 11.9981 16.2509 12.5383 16.2509C13.0784 16.2509 13.4658 16.0018 13.7529 15.6497C14.0506 15.2845 14.2211 14.8261 14.286 14.5031C14.4235 13.7949 14.4682 13.0715 14.4192 12.3517C14.4186 12.3426 14.4183 12.3334 14.4181 12.3242C14.4142 12.0885 14.363 11.8559 14.267 11.6406C14.171 11.4252 14.0324 11.231 13.8597 11.0705C13.687 10.91 13.4833 10.7864 13.2616 10.7064C13.0398 10.6265 12.8043 10.5917 12.5689 10.605Z" fill="#C6232F"/>
</svg>
