<svg width="32" height="32" viewBox="0 0 32 32" fill="none" xmlns="http://www.w3.org/2000/svg">
<path d="M0.533332 18.1334C0.67478 18.1334 0.810436 18.0772 0.910455 17.9772C1.01047 17.8772 1.06666 17.7416 1.06666 17.6001V8.53346H7.46665V16.5334C7.46652 16.6118 7.48366 16.6892 7.51684 16.7602C7.55003 16.8312 7.59844 16.894 7.65865 16.9441C7.7546 17.0236 7.87537 17.067 7.99998 17.0668H8.09598L10.4373 16.6401C10.5757 16.6142 10.6982 16.5346 10.7781 16.4187C10.858 16.3028 10.8889 16.16 10.864 16.0214C10.838 15.8831 10.7585 15.7606 10.6426 15.6806C10.5267 15.6007 10.3839 15.5698 10.2453 15.5948L8.53331 15.8934V8.53346H9.36531C9.50676 8.53346 9.64241 8.47727 9.74243 8.37725C9.84245 8.27723 9.89864 8.14158 9.89864 8.00013C9.89864 7.85868 9.84245 7.72302 9.74243 7.62301C9.64241 7.52299 9.50676 7.4668 9.36531 7.4668H0.533332C0.391884 7.4668 0.256228 7.52299 0.156209 7.62301C0.0561902 7.72302 0 7.85868 0 8.00013V17.6001C0 17.7416 0.0561902 17.8772 0.156209 17.9772C0.256228 18.0772 0.391884 18.1334 0.533332 18.1334Z" fill="#C6232F"/>
<path d="M27.1999 20.9015C27.0585 20.9015 26.9228 20.9577 26.8228 21.0577C26.7228 21.1578 26.6666 21.2934 26.6666 21.4349V30.9335H1.06666V19.7335C1.06666 19.5921 1.01047 19.4564 0.910455 19.3564C0.810436 19.2564 0.674781 19.2002 0.533332 19.2002C0.391884 19.2002 0.256229 19.2564 0.156209 19.3564C0.0561902 19.4564 0 19.5921 0 19.7335V31.4668C0 31.6083 0.0561902 31.7439 0.156209 31.844C0.256229 31.944 0.391884 32.0002 0.533332 32.0002H27.1999C27.3414 32.0002 27.477 31.944 27.5771 31.844C27.6771 31.7439 27.7333 31.6083 27.7333 31.4668V21.4349C27.7333 21.2934 27.6771 21.1578 27.5771 21.0577C27.477 20.9577 27.3414 20.9015 27.1999 20.9015Z" fill="#C6232F"/>
<path d="M15.4666 26.6668H23.9999C24.1413 26.6668 24.277 26.6106 24.377 26.5106C24.477 26.4105 24.5332 26.2749 24.5332 26.1334C24.5332 25.992 24.477 25.8563 24.377 25.7563C24.277 25.6563 24.1413 25.6001 23.9999 25.6001H15.4666C15.3251 25.6001 15.1895 25.6563 15.0894 25.7563C14.9894 25.8563 14.9332 25.992 14.9332 26.1334C14.9332 26.2749 14.9894 26.4105 15.0894 26.5106C15.1895 26.6106 15.3251 26.6668 15.4666 26.6668Z" fill="#C6232F"/>
<path d="M15.4666 28.8001H23.9999C24.1413 28.8001 24.277 28.7439 24.377 28.6439C24.477 28.5438 24.5332 28.4082 24.5332 28.2667C24.5332 28.1253 24.477 27.9896 24.377 27.8896C24.277 27.7896 24.1413 27.7334 23.9999 27.7334H15.4666C15.3251 27.7334 15.1895 27.7896 15.0894 27.8896C14.9894 27.9896 14.9332 28.1253 14.9332 28.2667C14.9332 28.4082 14.9894 28.5438 15.0894 28.6439C15.1895 28.7439 15.3251 28.8001 15.4666 28.8001Z" fill="#C6232F"/>
<path d="M3.19995 22.9332V28.2666C3.19995 28.408 3.25614 28.5437 3.35616 28.6437C3.45618 28.7437 3.59183 28.7999 3.73328 28.7999H12.2666C12.408 28.7999 12.5437 28.7437 12.6437 28.6437C12.7437 28.5437 12.7999 28.408 12.7999 28.2666V22.9332C12.7999 22.7918 12.7437 22.6561 12.6437 22.5561C12.5437 22.4561 12.408 22.3999 12.2666 22.3999H3.73328C3.59183 22.3999 3.45618 22.4561 3.35616 22.5561C3.25614 22.6561 3.19995 22.7918 3.19995 22.9332ZM4.26662 23.4666H11.7333V27.7332H4.26662V23.4666Z" fill="#C6232F"/>
<path d="M21.3334 0C19.2237 0 17.1614 0.625588 15.4073 1.79765C13.6532 2.96972 12.286 4.63562 11.4787 6.58469C10.6714 8.53377 10.4601 10.6785 10.8717 12.7476C11.2833 14.8167 12.2992 16.7173 13.7909 18.2091C15.2827 19.7009 17.1833 20.7168 19.2524 21.1283C21.3216 21.5399 23.4663 21.3287 25.4153 20.5213C27.3644 19.714 29.0303 18.3468 30.2024 16.5927C31.3744 14.8386 32 12.7763 32 10.6666C32 7.83767 30.8762 5.12457 28.8758 3.12419C26.8755 1.1238 24.1624 0 21.3334 0ZM21.3334 20.2666C19.4347 20.2666 17.5786 19.7036 15.9999 18.6487C14.4212 17.5939 13.1908 16.0946 12.4642 14.3404C11.7376 12.5862 11.5475 10.656 11.9179 8.79378C12.2883 6.93157 13.2026 5.22101 14.5452 3.87843C15.8878 2.53585 17.5983 1.62154 19.4605 1.25112C21.3227 0.880708 23.253 1.07082 25.0071 1.79742C26.7613 2.52402 28.2606 3.75447 29.3155 5.33318C30.3703 6.91189 30.9334 8.76795 30.9334 10.6666C30.9334 11.9273 30.6851 13.1757 30.2026 14.3404C29.7202 15.5051 29.013 16.5634 28.1216 17.4549C27.2302 18.3463 26.1719 19.0534 25.0071 19.5359C23.8424 20.0183 22.5941 20.2666 21.3334 20.2666Z" fill="#C6232F"/>
<path d="M25.5999 7.46649C25.3248 7.46561 25.0544 7.53736 24.8159 7.67449C24.6715 7.44742 24.4721 7.26044 24.2363 7.13086C24.0004 7.00128 23.7357 6.93328 23.4666 6.93316C23.1915 6.93228 22.921 7.00403 22.6826 7.14116C22.4885 6.83584 22.1967 6.60529 21.8548 6.48712C21.5129 6.36896 21.1411 6.37014 20.7999 6.4905V4.2665C20.7999 3.84215 20.6313 3.43519 20.3313 3.13513C20.0312 2.83507 19.6242 2.6665 19.1999 2.6665C18.7756 2.6665 18.3686 2.83507 18.0685 3.13513C17.7685 3.43519 17.5999 3.84215 17.5999 4.2665V9.39716L17.2106 9.01316C16.9015 8.70409 16.4823 8.53046 16.0452 8.53046C15.6082 8.53046 15.189 8.70409 14.8799 9.01316C14.5708 9.32222 14.3972 9.7414 14.3972 10.1785C14.3972 10.6156 14.5708 11.0348 14.8799 11.3438L17.1519 13.6371C17.404 14.4351 17.5423 15.2646 17.5626 16.1011C17.5884 16.5077 17.7683 16.8891 18.0656 17.1676C18.3629 17.446 18.7552 17.6006 19.1626 17.5998H24.7306C25.0553 17.6006 25.3726 17.5025 25.6403 17.3187C25.908 17.1348 26.1134 16.8739 26.2292 16.5705C26.3724 16.2 26.5761 15.8557 26.8319 15.5518C27.0692 15.2654 27.1994 14.9052 27.1999 14.5331V9.06649C27.1999 8.64214 27.0313 8.23518 26.7313 7.93512C26.4312 7.63506 26.0242 7.46649 25.5999 7.46649ZM26.1332 14.5331C26.132 14.6584 26.0867 14.7793 26.0052 14.8745C25.673 15.2752 25.4082 15.7274 25.2212 16.2131C25.1796 16.3085 25.1109 16.3897 25.0238 16.4465C24.9366 16.5034 24.8346 16.5335 24.7306 16.5331H19.1519C19.0158 16.5334 18.8848 16.4816 18.7857 16.3884C18.6865 16.2952 18.6267 16.1676 18.6186 16.0318C18.6127 15.0322 18.4322 14.0413 18.0852 13.1038C18.0597 13.0505 18.0254 13.0019 17.9839 12.9598L15.6426 10.5918C15.5617 10.5108 15.5066 10.4078 15.4841 10.2956C15.4615 10.1835 15.4726 10.0671 15.5159 9.96124C15.5591 9.85532 15.6327 9.76453 15.7274 9.70024C15.822 9.63595 15.9335 9.60102 16.0479 9.59982C16.1254 9.60021 16.2021 9.61597 16.2735 9.64618C16.3449 9.67639 16.4096 9.72045 16.4639 9.77582L17.7599 11.0452C17.8348 11.1185 17.9296 11.1682 18.0326 11.188C18.1355 11.2078 18.242 11.1968 18.3388 11.1564C18.4355 11.116 18.5182 11.048 18.5765 10.9609C18.6348 10.8737 18.6661 10.7713 18.6666 10.6665V4.2665C18.6666 4.12505 18.7228 3.9894 18.8228 3.88938C18.9228 3.78936 19.0585 3.73317 19.1999 3.73317C19.3414 3.73317 19.477 3.78936 19.577 3.88938C19.677 3.9894 19.7332 4.12505 19.7332 4.2665V10.6665C19.7332 10.8079 19.7894 10.9436 19.8894 11.0436C19.9895 11.1436 20.1251 11.1998 20.2666 11.1998C20.408 11.1998 20.5437 11.1436 20.6437 11.0436C20.7437 10.9436 20.7999 10.8079 20.7999 10.6665V7.99983C20.7999 7.85838 20.8561 7.72272 20.9561 7.6227C21.0561 7.52268 21.1918 7.46649 21.3332 7.46649C21.4747 7.46649 21.6103 7.52268 21.7104 7.6227C21.8104 7.72272 21.8666 7.85838 21.8666 7.99983V10.6665C21.8666 10.8079 21.9228 10.9436 22.0228 11.0436C22.1228 11.1436 22.2584 11.1998 22.3999 11.1998C22.5413 11.1998 22.677 11.1436 22.777 11.0436C22.877 10.9436 22.9332 10.8079 22.9332 10.6665V8.53316C22.9332 8.39171 22.9894 8.25605 23.0894 8.15603C23.1895 8.05602 23.3251 7.99983 23.4666 7.99983C23.608 7.99983 23.7437 8.05602 23.8437 8.15603C23.9437 8.25605 23.9999 8.39171 23.9999 8.53316V10.6665C23.9999 10.8079 24.0561 10.9436 24.1561 11.0436C24.2561 11.1436 24.3918 11.1998 24.5332 11.1998C24.6747 11.1998 24.8103 11.1436 24.9103 11.0436C25.0104 10.9436 25.0666 10.8079 25.0666 10.6665V9.06649C25.0666 8.92504 25.1227 8.78939 25.2228 8.68937C25.3228 8.58935 25.4584 8.53316 25.5999 8.53316C25.7413 8.53316 25.877 8.58935 25.977 8.68937C26.077 8.78939 26.1332 8.92504 26.1332 9.06649V14.5331Z" fill="#C6232F"/>
</svg>
