<svg width="26" height="28" viewBox="0 0 26 28" fill="none" xmlns="http://www.w3.org/2000/svg">
<mask id="path-1-outside-1_1_518" maskUnits="userSpaceOnUse" x="-0.799988" y="-0.800049" width="27" height="28" fill="black">
<rect fill="white" x="-0.799988" y="-0.800049" width="27" height="28"/>
<path d="M25.1026 15.0038C24.633 14.6182 23.8709 14.4805 23.3071 15.0892L20.4826 18.1399C20.4594 17.9841 20.4144 17.8291 20.3471 17.6786C20.0639 17.0454 19.459 16.6521 18.7685 16.6521H14.4485L13.9117 16.3414C13.3054 15.991 12.6956 15.8278 11.9924 15.8278H10.0024C8.96485 15.8278 8.05239 16.205 7.29036 16.9488L4.91778 19.2645C4.51753 19.0326 3.99582 19.0866 3.65363 19.4288L2.77518 20.3073C2.36761 20.7149 2.36761 21.378 2.77518 21.7855L7.62752 26.6394L7.62815 26.64C7.83244 26.8432 8.1003 26.9447 8.368 26.9447C8.6357 26.9447 8.90377 26.8429 9.10737 26.6394L9.98577 25.7609C10.3365 25.4102 10.3848 24.871 10.1326 24.4672L10.3242 24.2468C10.6599 23.8613 11.0891 23.6659 11.5999 23.6659H18.3565C19.6728 23.6659 20.8441 23.0507 21.6544 21.9337L25.3725 16.8063C25.8446 16.1561 25.5942 15.4073 25.1027 15.0037L25.1026 15.0038ZM9.53474 25.31L8.65634 26.1885C8.49758 26.3473 8.23826 26.3472 8.07817 26.1881L3.22621 21.3346C3.14969 21.2581 3.10751 21.1557 3.10751 21.0464C3.10751 20.9371 3.14964 20.8348 3.22621 20.7582L4.10466 19.8798C4.18117 19.8032 4.28379 19.7611 4.39358 19.7611C4.50337 19.7611 4.60594 19.8032 4.6825 19.8798L9.53484 24.7321C9.61136 24.8086 9.65354 24.9112 9.65354 25.021C9.65354 25.1308 9.61141 25.2334 9.53484 25.3099L9.53474 25.31ZM24.8562 16.4319L21.138 21.5594C20.4409 22.5202 19.479 23.0282 18.3563 23.0282H11.5997C10.9062 23.0282 10.2988 23.3048 9.84287 23.8283L9.69864 23.9943L5.3946 19.6903L7.73571 17.4053C8.38344 16.773 9.12488 16.4657 10.0023 16.4657H11.9923C12.5868 16.4657 13.0804 16.5976 13.5924 16.8935L14.2031 17.247C14.2516 17.2751 14.3067 17.2899 14.3628 17.2899H18.7684C19.289 17.2899 19.6245 17.6252 19.7648 17.9391C19.9458 18.3435 19.8781 18.7816 19.5837 19.1108C19.3753 19.3435 19.0781 19.4769 18.7684 19.4769H14.6381C14.462 19.4769 14.3193 19.6196 14.3193 19.7958C14.3193 19.972 14.462 20.1147 14.6381 20.1147H18.7684C19.2571 20.1147 19.7253 19.9056 20.0544 19.541C20.0547 19.5407 20.055 19.5405 20.0553 19.5402L23.775 15.5227C24.0793 15.1941 24.4623 15.3033 24.6979 15.4968C24.8927 15.6567 25.1453 16.0336 24.8562 16.4319ZM10.0776 13.3461H17.1046C17.8655 14.5968 19.2416 15.4339 20.8095 15.4339C23.1998 15.4339 25.1444 13.4899 25.1444 11.1004C25.1444 9.13167 23.8237 7.46646 22.0218 6.94078V1.40176C22.0218 0.739064 21.4834 0.199951 20.8216 0.199951H10.0776C9.41572 0.199951 8.87729 0.739064 8.87729 1.40176V12.1442C8.87729 12.8069 9.41572 13.346 10.0776 13.346V13.3461ZM24.5067 11.1004C24.5067 13.1382 22.8482 14.7961 20.8095 14.7961C18.7709 14.7961 17.1139 13.1382 17.1139 11.1004C17.1139 9.06263 18.7718 7.40481 20.8095 7.40481C22.8473 7.40481 24.5067 9.06269 24.5067 11.1004ZM14.0485 0.837654H16.8507V5.10493H14.0485V0.837654ZM9.51505 1.40171C9.51505 1.09071 9.76741 0.837654 10.0776 0.837654H13.4108V5.42378C13.4108 5.59989 13.5535 5.74263 13.7296 5.74263H17.1696C17.3457 5.74263 17.4885 5.59989 17.4885 5.42378V0.837654H20.8216C21.1318 0.837654 21.3842 1.09071 21.3842 1.40171V6.80616C21.196 6.78111 21.0045 6.76694 20.8096 6.76694C18.4201 6.76694 16.4762 8.71088 16.4762 11.1003C16.4762 11.6684 16.5871 12.2107 16.7868 12.7083H10.0776C9.76741 12.7083 9.51505 12.4552 9.51505 12.1442V1.40171ZM17.8103 11.1003C17.8103 12.7541 19.1558 14.0996 20.8095 14.0996C22.4633 14.0996 23.8088 12.7541 23.8088 11.1003C23.8088 9.44654 22.4633 8.10114 20.8095 8.10114C19.1557 8.10114 17.8103 9.44659 17.8103 11.1003ZM23.1711 11.1003C23.1711 12.4025 22.1117 13.4618 20.8096 13.4618C19.5075 13.4618 18.4481 12.4025 18.4481 11.1003C18.4481 9.79818 19.5074 8.73885 20.8096 8.73885C22.1117 8.73885 23.1711 9.79818 23.1711 11.1003ZM20.3542 11.4534L21.8039 10.0026C21.9283 9.87799 22.1302 9.87788 22.2548 10.0024C22.3794 10.1269 22.3795 10.3288 22.255 10.4534L20.5117 12.1982C20.4515 12.2585 20.3702 12.2917 20.2862 12.2917C20.2724 12.2917 20.2585 12.2908 20.2447 12.289C20.1464 12.2761 20.0597 12.2182 20.0101 12.1324L19.3136 10.9276C19.2255 10.7751 19.2777 10.5801 19.4301 10.4919C19.5826 10.4037 19.7776 10.4559 19.8658 10.6084L20.3542 11.4534ZM8.02145 11.2146C8.02145 11.3907 7.87871 11.5335 7.7026 11.5335H4.39952C4.22341 11.5335 4.08067 11.3907 4.08067 11.2146C4.08067 11.0385 4.22341 10.8958 4.39952 10.8958H7.7026C7.87871 10.8958 8.02145 11.0385 8.02145 11.2146ZM4.08062 2.33131C4.08062 2.15519 4.22336 2.01245 4.39947 2.01245H7.70255C7.87866 2.01245 8.0214 2.15519 8.0214 2.33131C8.0214 2.50742 7.87866 2.65016 7.70255 2.65016H4.39947C4.22336 2.65016 4.08062 2.50742 4.08062 2.33131ZM7.70255 9.31346H2.21102C2.03491 9.31346 1.89217 9.17072 1.89217 8.99461C1.89217 8.81849 2.03491 8.67575 2.21102 8.67575H7.7026C7.87871 8.67575 8.02145 8.81849 8.02145 8.99461C8.02145 9.17072 7.87871 9.31346 7.7026 9.31346H7.70255ZM1.89212 4.55138C1.89212 4.37527 2.03485 4.23253 2.21097 4.23253H7.70255C7.87866 4.23253 8.0214 4.37527 8.0214 4.55138C8.0214 4.72749 7.87866 4.87023 7.70255 4.87023H2.21102C2.03491 4.87023 1.89212 4.72749 1.89212 4.55138ZM7.70255 7.09184H0.518864C0.34275 7.09184 0.200012 6.94911 0.200012 6.77299C0.200012 6.59688 0.34275 6.45414 0.518864 6.45414H7.7026C7.87871 6.45414 8.02145 6.59688 8.02145 6.77299C8.02145 6.94911 7.87871 7.09184 7.7026 7.09184H7.70255Z"/>
</mask>
<path d="M25.1026 15.0038C24.633 14.6182 23.8709 14.4805 23.3071 15.0892L20.4826 18.1399C20.4594 17.9841 20.4144 17.8291 20.3471 17.6786C20.0639 17.0454 19.459 16.6521 18.7685 16.6521H14.4485L13.9117 16.3414C13.3054 15.991 12.6956 15.8278 11.9924 15.8278H10.0024C8.96485 15.8278 8.05239 16.205 7.29036 16.9488L4.91778 19.2645C4.51753 19.0326 3.99582 19.0866 3.65363 19.4288L2.77518 20.3073C2.36761 20.7149 2.36761 21.378 2.77518 21.7855L7.62752 26.6394L7.62815 26.64C7.83244 26.8432 8.1003 26.9447 8.368 26.9447C8.6357 26.9447 8.90377 26.8429 9.10737 26.6394L9.98577 25.7609C10.3365 25.4102 10.3848 24.871 10.1326 24.4672L10.3242 24.2468C10.6599 23.8613 11.0891 23.6659 11.5999 23.6659H18.3565C19.6728 23.6659 20.8441 23.0507 21.6544 21.9337L25.3725 16.8063C25.8446 16.1561 25.5942 15.4073 25.1027 15.0037L25.1026 15.0038ZM9.53474 25.31L8.65634 26.1885C8.49758 26.3473 8.23826 26.3472 8.07817 26.1881L3.22621 21.3346C3.14969 21.2581 3.10751 21.1557 3.10751 21.0464C3.10751 20.9371 3.14964 20.8348 3.22621 20.7582L4.10466 19.8798C4.18117 19.8032 4.28379 19.7611 4.39358 19.7611C4.50337 19.7611 4.60594 19.8032 4.6825 19.8798L9.53484 24.7321C9.61136 24.8086 9.65354 24.9112 9.65354 25.021C9.65354 25.1308 9.61141 25.2334 9.53484 25.3099L9.53474 25.31ZM24.8562 16.4319L21.138 21.5594C20.4409 22.5202 19.479 23.0282 18.3563 23.0282H11.5997C10.9062 23.0282 10.2988 23.3048 9.84287 23.8283L9.69864 23.9943L5.3946 19.6903L7.73571 17.4053C8.38344 16.773 9.12488 16.4657 10.0023 16.4657H11.9923C12.5868 16.4657 13.0804 16.5976 13.5924 16.8935L14.2031 17.247C14.2516 17.2751 14.3067 17.2899 14.3628 17.2899H18.7684C19.289 17.2899 19.6245 17.6252 19.7648 17.9391C19.9458 18.3435 19.8781 18.7816 19.5837 19.1108C19.3753 19.3435 19.0781 19.4769 18.7684 19.4769H14.6381C14.462 19.4769 14.3193 19.6196 14.3193 19.7958C14.3193 19.972 14.462 20.1147 14.6381 20.1147H18.7684C19.2571 20.1147 19.7253 19.9056 20.0544 19.541C20.0547 19.5407 20.055 19.5405 20.0553 19.5402L23.775 15.5227C24.0793 15.1941 24.4623 15.3033 24.6979 15.4968C24.8927 15.6567 25.1453 16.0336 24.8562 16.4319ZM10.0776 13.3461H17.1046C17.8655 14.5968 19.2416 15.4339 20.8095 15.4339C23.1998 15.4339 25.1444 13.4899 25.1444 11.1004C25.1444 9.13167 23.8237 7.46646 22.0218 6.94078V1.40176C22.0218 0.739064 21.4834 0.199951 20.8216 0.199951H10.0776C9.41572 0.199951 8.87729 0.739064 8.87729 1.40176V12.1442C8.87729 12.8069 9.41572 13.346 10.0776 13.346V13.3461ZM24.5067 11.1004C24.5067 13.1382 22.8482 14.7961 20.8095 14.7961C18.7709 14.7961 17.1139 13.1382 17.1139 11.1004C17.1139 9.06263 18.7718 7.40481 20.8095 7.40481C22.8473 7.40481 24.5067 9.06269 24.5067 11.1004ZM14.0485 0.837654H16.8507V5.10493H14.0485V0.837654ZM9.51505 1.40171C9.51505 1.09071 9.76741 0.837654 10.0776 0.837654H13.4108V5.42378C13.4108 5.59989 13.5535 5.74263 13.7296 5.74263H17.1696C17.3457 5.74263 17.4885 5.59989 17.4885 5.42378V0.837654H20.8216C21.1318 0.837654 21.3842 1.09071 21.3842 1.40171V6.80616C21.196 6.78111 21.0045 6.76694 20.8096 6.76694C18.4201 6.76694 16.4762 8.71088 16.4762 11.1003C16.4762 11.6684 16.5871 12.2107 16.7868 12.7083H10.0776C9.76741 12.7083 9.51505 12.4552 9.51505 12.1442V1.40171ZM17.8103 11.1003C17.8103 12.7541 19.1558 14.0996 20.8095 14.0996C22.4633 14.0996 23.8088 12.7541 23.8088 11.1003C23.8088 9.44654 22.4633 8.10114 20.8095 8.10114C19.1557 8.10114 17.8103 9.44659 17.8103 11.1003ZM23.1711 11.1003C23.1711 12.4025 22.1117 13.4618 20.8096 13.4618C19.5075 13.4618 18.4481 12.4025 18.4481 11.1003C18.4481 9.79818 19.5074 8.73885 20.8096 8.73885C22.1117 8.73885 23.1711 9.79818 23.1711 11.1003ZM20.3542 11.4534L21.8039 10.0026C21.9283 9.87799 22.1302 9.87788 22.2548 10.0024C22.3794 10.1269 22.3795 10.3288 22.255 10.4534L20.5117 12.1982C20.4515 12.2585 20.3702 12.2917 20.2862 12.2917C20.2724 12.2917 20.2585 12.2908 20.2447 12.289C20.1464 12.2761 20.0597 12.2182 20.0101 12.1324L19.3136 10.9276C19.2255 10.7751 19.2777 10.5801 19.4301 10.4919C19.5826 10.4037 19.7776 10.4559 19.8658 10.6084L20.3542 11.4534ZM8.02145 11.2146C8.02145 11.3907 7.87871 11.5335 7.7026 11.5335H4.39952C4.22341 11.5335 4.08067 11.3907 4.08067 11.2146C4.08067 11.0385 4.22341 10.8958 4.39952 10.8958H7.7026C7.87871 10.8958 8.02145 11.0385 8.02145 11.2146ZM4.08062 2.33131C4.08062 2.15519 4.22336 2.01245 4.39947 2.01245H7.70255C7.87866 2.01245 8.0214 2.15519 8.0214 2.33131C8.0214 2.50742 7.87866 2.65016 7.70255 2.65016H4.39947C4.22336 2.65016 4.08062 2.50742 4.08062 2.33131ZM7.70255 9.31346H2.21102C2.03491 9.31346 1.89217 9.17072 1.89217 8.99461C1.89217 8.81849 2.03491 8.67575 2.21102 8.67575H7.7026C7.87871 8.67575 8.02145 8.81849 8.02145 8.99461C8.02145 9.17072 7.87871 9.31346 7.7026 9.31346H7.70255ZM1.89212 4.55138C1.89212 4.37527 2.03485 4.23253 2.21097 4.23253H7.70255C7.87866 4.23253 8.0214 4.37527 8.0214 4.55138C8.0214 4.72749 7.87866 4.87023 7.70255 4.87023H2.21102C2.03491 4.87023 1.89212 4.72749 1.89212 4.55138ZM7.70255 7.09184H0.518864C0.34275 7.09184 0.200012 6.94911 0.200012 6.77299C0.200012 6.59688 0.34275 6.45414 0.518864 6.45414H7.7026C7.87871 6.45414 8.02145 6.59688 8.02145 6.77299C8.02145 6.94911 7.87871 7.09184 7.7026 7.09184H7.70255Z" fill="#C6232F"/>
<path d="M25.1026 15.0038C24.633 14.6182 23.8709 14.4805 23.3071 15.0892L20.4826 18.1399C20.4594 17.9841 20.4144 17.8291 20.3471 17.6786C20.0639 17.0454 19.459 16.6521 18.7685 16.6521H14.4485L13.9117 16.3414C13.3054 15.991 12.6956 15.8278 11.9924 15.8278H10.0024C8.96485 15.8278 8.05239 16.205 7.29036 16.9488L4.91778 19.2645C4.51753 19.0326 3.99582 19.0866 3.65363 19.4288L2.77518 20.3073C2.36761 20.7149 2.36761 21.378 2.77518 21.7855L7.62752 26.6394L7.62815 26.64C7.83244 26.8432 8.1003 26.9447 8.368 26.9447C8.6357 26.9447 8.90377 26.8429 9.10737 26.6394L9.98577 25.7609C10.3365 25.4102 10.3848 24.871 10.1326 24.4672L10.3242 24.2468C10.6599 23.8613 11.0891 23.6659 11.5999 23.6659H18.3565C19.6728 23.6659 20.8441 23.0507 21.6544 21.9337L25.3725 16.8063C25.8446 16.1561 25.5942 15.4073 25.1027 15.0037L25.1026 15.0038ZM9.53474 25.31L8.65634 26.1885C8.49758 26.3473 8.23826 26.3472 8.07817 26.1881L3.22621 21.3346C3.14969 21.2581 3.10751 21.1557 3.10751 21.0464C3.10751 20.9371 3.14964 20.8348 3.22621 20.7582L4.10466 19.8798C4.18117 19.8032 4.28379 19.7611 4.39358 19.7611C4.50337 19.7611 4.60594 19.8032 4.6825 19.8798L9.53484 24.7321C9.61136 24.8086 9.65354 24.9112 9.65354 25.021C9.65354 25.1308 9.61141 25.2334 9.53484 25.3099L9.53474 25.31ZM24.8562 16.4319L21.138 21.5594C20.4409 22.5202 19.479 23.0282 18.3563 23.0282H11.5997C10.9062 23.0282 10.2988 23.3048 9.84287 23.8283L9.69864 23.9943L5.3946 19.6903L7.73571 17.4053C8.38344 16.773 9.12488 16.4657 10.0023 16.4657H11.9923C12.5868 16.4657 13.0804 16.5976 13.5924 16.8935L14.2031 17.247C14.2516 17.2751 14.3067 17.2899 14.3628 17.2899H18.7684C19.289 17.2899 19.6245 17.6252 19.7648 17.9391C19.9458 18.3435 19.8781 18.7816 19.5837 19.1108C19.3753 19.3435 19.0781 19.4769 18.7684 19.4769H14.6381C14.462 19.4769 14.3193 19.6196 14.3193 19.7958C14.3193 19.972 14.462 20.1147 14.6381 20.1147H18.7684C19.2571 20.1147 19.7253 19.9056 20.0544 19.541C20.0547 19.5407 20.055 19.5405 20.0553 19.5402L23.775 15.5227C24.0793 15.1941 24.4623 15.3033 24.6979 15.4968C24.8927 15.6567 25.1453 16.0336 24.8562 16.4319ZM10.0776 13.3461H17.1046C17.8655 14.5968 19.2416 15.4339 20.8095 15.4339C23.1998 15.4339 25.1444 13.4899 25.1444 11.1004C25.1444 9.13167 23.8237 7.46646 22.0218 6.94078V1.40176C22.0218 0.739064 21.4834 0.199951 20.8216 0.199951H10.0776C9.41572 0.199951 8.87729 0.739064 8.87729 1.40176V12.1442C8.87729 12.8069 9.41572 13.346 10.0776 13.346V13.3461ZM24.5067 11.1004C24.5067 13.1382 22.8482 14.7961 20.8095 14.7961C18.7709 14.7961 17.1139 13.1382 17.1139 11.1004C17.1139 9.06263 18.7718 7.40481 20.8095 7.40481C22.8473 7.40481 24.5067 9.06269 24.5067 11.1004ZM14.0485 0.837654H16.8507V5.10493H14.0485V0.837654ZM9.51505 1.40171C9.51505 1.09071 9.76741 0.837654 10.0776 0.837654H13.4108V5.42378C13.4108 5.59989 13.5535 5.74263 13.7296 5.74263H17.1696C17.3457 5.74263 17.4885 5.59989 17.4885 5.42378V0.837654H20.8216C21.1318 0.837654 21.3842 1.09071 21.3842 1.40171V6.80616C21.196 6.78111 21.0045 6.76694 20.8096 6.76694C18.4201 6.76694 16.4762 8.71088 16.4762 11.1003C16.4762 11.6684 16.5871 12.2107 16.7868 12.7083H10.0776C9.76741 12.7083 9.51505 12.4552 9.51505 12.1442V1.40171ZM17.8103 11.1003C17.8103 12.7541 19.1558 14.0996 20.8095 14.0996C22.4633 14.0996 23.8088 12.7541 23.8088 11.1003C23.8088 9.44654 22.4633 8.10114 20.8095 8.10114C19.1557 8.10114 17.8103 9.44659 17.8103 11.1003ZM23.1711 11.1003C23.1711 12.4025 22.1117 13.4618 20.8096 13.4618C19.5075 13.4618 18.4481 12.4025 18.4481 11.1003C18.4481 9.79818 19.5074 8.73885 20.8096 8.73885C22.1117 8.73885 23.1711 9.79818 23.1711 11.1003ZM20.3542 11.4534L21.8039 10.0026C21.9283 9.87799 22.1302 9.87788 22.2548 10.0024C22.3794 10.1269 22.3795 10.3288 22.255 10.4534L20.5117 12.1982C20.4515 12.2585 20.3702 12.2917 20.2862 12.2917C20.2724 12.2917 20.2585 12.2908 20.2447 12.289C20.1464 12.2761 20.0597 12.2182 20.0101 12.1324L19.3136 10.9276C19.2255 10.7751 19.2777 10.5801 19.4301 10.4919C19.5826 10.4037 19.7776 10.4559 19.8658 10.6084L20.3542 11.4534ZM8.02145 11.2146C8.02145 11.3907 7.87871 11.5335 7.7026 11.5335H4.39952C4.22341 11.5335 4.08067 11.3907 4.08067 11.2146C4.08067 11.0385 4.22341 10.8958 4.39952 10.8958H7.7026C7.87871 10.8958 8.02145 11.0385 8.02145 11.2146ZM4.08062 2.33131C4.08062 2.15519 4.22336 2.01245 4.39947 2.01245H7.70255C7.87866 2.01245 8.0214 2.15519 8.0214 2.33131C8.0214 2.50742 7.87866 2.65016 7.70255 2.65016H4.39947C4.22336 2.65016 4.08062 2.50742 4.08062 2.33131ZM7.70255 9.31346H2.21102C2.03491 9.31346 1.89217 9.17072 1.89217 8.99461C1.89217 8.81849 2.03491 8.67575 2.21102 8.67575H7.7026C7.87871 8.67575 8.02145 8.81849 8.02145 8.99461C8.02145 9.17072 7.87871 9.31346 7.7026 9.31346H7.70255ZM1.89212 4.55138C1.89212 4.37527 2.03485 4.23253 2.21097 4.23253H7.70255C7.87866 4.23253 8.0214 4.37527 8.0214 4.55138C8.0214 4.72749 7.87866 4.87023 7.70255 4.87023H2.21102C2.03491 4.87023 1.89212 4.72749 1.89212 4.55138ZM7.70255 7.09184H0.518864C0.34275 7.09184 0.200012 6.94911 0.200012 6.77299C0.200012 6.59688 0.34275 6.45414 0.518864 6.45414H7.7026C7.87871 6.45414 8.02145 6.59688 8.02145 6.77299C8.02145 6.94911 7.87871 7.09184 7.7026 7.09184H7.70255Z" stroke="#C6232F" stroke-width="0.4" mask="url(#path-1-outside-1_1_518)"/>
</svg>
