<svg width="27" height="25" viewBox="0 0 27 25" fill="none" xmlns="http://www.w3.org/2000/svg">
<path d="M11.5446 18.4406C11.4534 18.4407 11.3638 18.4166 11.285 18.3708L9.11263 17.1166C9.05355 17.0825 9.00177 17.0371 8.96024 16.983C8.91871 16.9289 8.88824 16.8671 8.87058 16.8013C8.85292 16.7354 8.84842 16.6667 8.85732 16.5991C8.86622 16.5314 8.88835 16.4662 8.92246 16.4072L9.2989 15.7559C8.79335 15.1871 8.40869 14.5216 8.16828 13.7997H7.41669C7.27898 13.7997 7.14691 13.7449 7.04954 13.6476C6.95217 13.5502 6.89746 13.4181 6.89746 13.2804V10.7712C6.89746 10.6335 6.95217 10.5015 7.04954 10.4041C7.14691 10.3067 7.27898 10.252 7.41669 10.252H8.16828C8.40873 9.53017 8.79339 8.86474 9.2989 8.29613L8.92246 7.64417C8.88835 7.58511 8.86622 7.5199 8.85732 7.45228C8.84842 7.38466 8.85292 7.31595 8.87058 7.25008C8.88824 7.1842 8.91871 7.12245 8.96024 7.06835C9.00177 7.01425 9.05355 6.96886 9.11263 6.93477L11.2853 5.68051C11.3443 5.64639 11.4095 5.62423 11.4771 5.61531C11.5447 5.60638 11.6134 5.61086 11.6793 5.62849C11.7452 5.64612 11.8069 5.67655 11.8611 5.71805C11.9152 5.75955 11.9606 5.8113 11.9947 5.87035L12.3705 6.52134C13.1161 6.37011 13.8845 6.37011 14.6301 6.52134L15.0059 5.87035C15.04 5.8113 15.0854 5.75955 15.1395 5.71805C15.1936 5.67655 15.2554 5.64612 15.3213 5.62849C15.3872 5.61086 15.4559 5.60638 15.5235 5.61531C15.5911 5.62423 15.6563 5.64639 15.7153 5.68051L17.8896 6.93477C17.9487 6.96886 18.0004 7.01425 18.042 7.06835C18.0835 7.12245 18.114 7.1842 18.1316 7.25008C18.1493 7.31595 18.1538 7.38466 18.1449 7.45228C18.136 7.5199 18.1139 7.58511 18.0797 7.64417L17.7033 8.29613C18.2089 8.86465 18.5936 9.53011 18.8339 10.252H19.5852C19.7229 10.252 19.855 10.3067 19.9523 10.4041C20.0497 10.5015 20.1044 10.6335 20.1044 10.7712V13.2804C20.1044 13.4181 20.0497 13.5502 19.9523 13.6476C19.855 13.7449 19.7229 13.7997 19.5852 13.7997H18.8323C18.592 14.5216 18.2073 15.1872 17.7017 15.7559L18.0781 16.4072C18.1122 16.4662 18.1344 16.5314 18.1433 16.5991C18.1522 16.6667 18.1477 16.7354 18.13 16.8013C18.1123 16.8671 18.0819 16.9289 18.0403 16.983C17.9988 17.0371 17.947 17.0825 17.888 17.1166L15.7137 18.3708C15.6546 18.405 15.5894 18.4271 15.5218 18.436C15.4542 18.445 15.3855 18.4405 15.3197 18.4228C15.2538 18.4052 15.192 18.3748 15.1379 18.3333C15.0838 18.2918 15.0384 18.24 15.0043 18.181L14.6285 17.53C13.8829 17.6812 13.1145 17.6812 12.3689 17.53L11.9931 18.181C11.9476 18.2597 11.8822 18.3252 11.8035 18.3707C11.7248 18.4163 11.6355 18.4404 11.5446 18.4406ZM10.0816 16.4769L11.3551 17.212L11.6653 16.6746C11.723 16.5746 11.8124 16.4967 11.9194 16.4532C12.0264 16.4097 12.1448 16.4031 12.2559 16.4344C13.0698 16.6624 13.9307 16.6624 14.7447 16.4344C14.8558 16.4031 14.9742 16.4097 15.0812 16.4532C15.1881 16.4967 15.2776 16.5746 15.3353 16.6746L15.6455 17.212L16.9189 16.4769L16.6081 15.9382C16.5503 15.8383 16.5276 15.7219 16.5434 15.6075C16.5592 15.4931 16.6127 15.3873 16.6953 15.3067C17.3014 14.7178 17.7323 13.9723 17.9402 13.1532C17.9686 13.0412 18.0335 12.9419 18.1246 12.871C18.2158 12.8 18.328 12.7615 18.4435 12.7615H19.0643V11.2905H18.4435C18.328 11.2905 18.2157 11.2519 18.1246 11.1809C18.0334 11.1099 17.9685 11.0105 17.9402 10.8985C17.7321 10.0794 17.3012 9.33406 16.6953 8.74494C16.6127 8.66437 16.5592 8.55853 16.5434 8.44416C16.5276 8.32979 16.5503 8.21341 16.6081 8.11343L16.9193 7.57472L15.6455 6.83936L15.3353 7.37677C15.2776 7.47677 15.1881 7.55468 15.0812 7.59817C14.9742 7.64166 14.8558 7.64826 14.7447 7.61691C13.9307 7.38889 13.0698 7.38889 12.2559 7.61691C12.1448 7.64826 12.0264 7.64166 11.9194 7.59817C11.8124 7.55468 11.723 7.47677 11.6653 7.37677L11.3551 6.83936L10.0816 7.57472L10.3925 8.11343C10.4503 8.21341 10.473 8.32979 10.4572 8.44416C10.4414 8.55853 10.3879 8.66437 10.3052 8.74494C9.69939 9.33406 9.26852 10.0794 9.06038 10.8985C9.03207 11.0105 8.96719 11.1099 8.87603 11.1809C8.78486 11.2519 8.67261 11.2905 8.55705 11.2905H7.93592V12.7612H8.55705C8.67261 12.7612 8.78486 12.7998 8.87603 12.8708C8.96719 12.9418 9.03207 13.0412 9.06038 13.1532C9.26824 13.9724 9.69915 14.718 10.3052 15.307C10.3879 15.3876 10.4414 15.4935 10.4572 15.6078C10.473 15.7222 10.4503 15.8386 10.3925 15.9386L10.0816 16.4769Z" fill="#C6232F"/>
<path d="M13.4999 15.3414C12.8441 15.3414 12.203 15.1469 11.6577 14.7825C11.1124 14.4182 10.6873 13.9003 10.4364 13.2944C10.1854 12.6885 10.1197 12.0217 10.2477 11.3785C10.3756 10.7353 10.6914 10.1444 11.1552 9.68069C11.6189 9.21695 12.2098 8.90114 12.853 8.77319C13.4962 8.64524 14.1629 8.71091 14.7689 8.96189C15.3748 9.21286 15.8926 9.63787 16.257 10.1832C16.6214 10.7285 16.8158 11.3696 16.8158 12.0254C16.8148 12.9045 16.4651 13.7474 15.8435 14.369C15.2218 14.9906 14.379 15.3403 13.4999 15.3414ZM13.4999 9.74794C13.0495 9.74794 12.6091 9.88151 12.2346 10.1318C11.8601 10.382 11.5682 10.7377 11.3958 11.1539C11.2234 11.57 11.1783 12.0279 11.2662 12.4697C11.3541 12.9115 11.571 13.3173 11.8895 13.6358C12.208 13.9543 12.6138 14.1712 13.0556 14.2591C13.4974 14.347 13.9553 14.3019 14.3715 14.1295C14.7876 13.9571 15.1433 13.6652 15.3936 13.2907C15.6438 12.9162 15.7774 12.4759 15.7774 12.0254C15.7767 11.4216 15.5365 10.8427 15.1096 10.4158C14.6826 9.98879 14.1037 9.74862 13.4999 9.74794Z" fill="#C6232F"/>
<path d="M22.8266 12.4921C22.6889 12.4921 22.5568 12.4374 22.4595 12.34C22.3621 12.2426 22.3074 12.1106 22.3074 11.9728C22.3074 11.8702 22.3378 11.7698 22.3949 11.6844C22.4519 11.599 22.533 11.5324 22.6279 11.4931C22.7228 11.4538 22.8272 11.4436 22.9279 11.4636C23.0286 11.4836 23.1211 11.5331 23.1938 11.6057C23.2664 11.6783 23.3158 11.7708 23.3359 11.8715C23.3559 11.9723 23.3456 12.0767 23.3063 12.1715C23.267 12.2664 23.2005 12.3475 23.1151 12.4046C23.0297 12.4616 22.9293 12.4921 22.8266 12.4921Z" fill="#C6232F"/>
<path d="M24.9533 12.4917H22.8268C22.6891 12.4917 22.557 12.437 22.4596 12.3396C22.3622 12.2423 22.3075 12.1102 22.3075 11.9725C22.3075 7.11606 18.3565 3.16504 13.5001 3.16504C8.64365 3.16504 4.69262 7.11736 4.69262 11.9725C4.69262 12.1102 4.63792 12.2423 4.54054 12.3396C4.44317 12.437 4.3111 12.4917 4.17339 12.4917H2.04682C1.90911 12.4917 1.77704 12.437 1.67967 12.3396C1.58229 12.2423 1.52759 12.1102 1.52759 11.9725C1.52759 8.79719 2.78897 5.75194 5.03425 3.50666C7.27953 1.26138 10.3248 0 13.5001 0C16.6754 0 19.7206 1.26138 21.9659 3.50666C24.2112 5.75194 25.4726 8.79719 25.4726 11.9725C25.4726 12.1102 25.4179 12.2423 25.3205 12.3396C25.2231 12.437 25.091 12.4917 24.9533 12.4917ZM23.3327 11.4533H24.4221C24.3036 8.97774 23.3478 6.61587 21.7113 4.75467C20.0748 2.89346 17.8546 1.64331 15.4146 1.20904C12.9746 0.774781 10.4594 1.18217 8.28123 2.36445C6.10305 3.54673 4.39103 5.43379 3.4257 7.71642C2.92375 8.90188 2.63683 10.1672 2.57838 11.4533H3.66714C3.93844 6.26484 8.24481 2.12658 13.5001 2.12658C18.7553 2.12658 23.0614 6.26484 23.333 11.4533H23.3327Z" fill="#C6232F"/>
<path d="M4.17332 18.2103H2.10613C1.54781 18.2094 1.01261 17.9872 0.617819 17.5924C0.223029 17.1977 0.00085829 16.6625 0 16.1041V13.5593C0.00085829 13.0009 0.223029 12.4657 0.617819 12.0709C1.01261 11.6762 1.54781 11.454 2.10613 11.4531H4.17332C4.31103 11.4531 4.4431 11.5078 4.54047 11.6052C4.63784 11.7026 4.69255 11.8346 4.69255 11.9724V17.691C4.69255 17.8287 4.63784 17.9608 4.54047 18.0582C4.4431 18.1556 4.31103 18.2103 4.17332 18.2103ZM2.10613 12.4916C1.82307 12.4919 1.55171 12.6045 1.35155 12.8047C1.1514 13.0048 1.03881 13.2762 1.03846 13.5593V16.1041C1.03881 16.3872 1.1514 16.6586 1.35155 16.8587C1.55171 17.0589 1.82307 17.1715 2.10613 17.1718H3.65409V12.4916H2.10613Z" fill="#C6232F"/>
<path d="M24.8938 18.2103H22.8266C22.6889 18.2103 22.5568 18.1556 22.4595 18.0582C22.3621 17.9608 22.3074 17.8287 22.3074 17.691V11.9724C22.3074 11.8346 22.3621 11.7026 22.4595 11.6052C22.5568 11.5078 22.6889 11.4531 22.8266 11.4531H24.8938C25.4521 11.454 25.9873 11.6762 26.3821 12.0709C26.7769 12.4657 26.9991 13.0009 26.9999 13.5593V16.1041C26.9991 16.6625 26.7769 17.1977 26.3821 17.5924C25.9873 17.9872 25.4521 18.2094 24.8938 18.2103ZM23.3458 17.1718H24.8938C25.1768 17.1715 25.4482 17.0589 25.6484 16.8587C25.8485 16.6586 25.9611 16.3872 25.9615 16.1041V13.5593C25.9611 13.2762 25.8485 13.0048 25.6484 12.8047C25.4482 12.6045 25.1768 12.4919 24.8938 12.4916H23.3458V17.1718Z" fill="#C6232F"/>
<path d="M15.3528 23.3508C15.2151 23.3508 15.0831 23.2961 14.9857 23.1987C14.8883 23.1014 14.8336 22.9693 14.8336 22.8316C14.8336 22.6939 14.8883 22.5618 14.9857 22.4644C15.0831 22.3671 15.2151 22.3124 15.3528 22.3124C18.4329 22.3124 21.2416 20.3802 22.3417 17.5049C22.3673 17.4417 22.405 17.3841 22.4529 17.3355C22.5007 17.2868 22.5576 17.2481 22.6204 17.2214C22.6832 17.1948 22.7507 17.1808 22.8189 17.1802C22.8871 17.1796 22.9548 17.1925 23.018 17.218C23.0812 17.2436 23.1388 17.2814 23.1875 17.3292C23.2361 17.377 23.2749 17.434 23.3015 17.4968C23.3281 17.5596 23.3421 17.627 23.3427 17.6952C23.3433 17.7634 23.3304 17.8311 23.3049 17.8943C22.6859 19.5006 21.595 20.8818 20.1758 21.8559C18.7565 22.8301 17.0755 23.3516 15.3541 23.3518L15.3528 23.3508Z" fill="#C6232F"/>
<path d="M14.3437 24.3597H13.4091C13.2066 24.3627 13.0056 24.3253 12.8176 24.2499C12.6297 24.1744 12.4586 24.0624 12.3144 23.9202C12.1702 23.7781 12.0556 23.6087 11.9774 23.4219C11.8993 23.235 11.859 23.0345 11.859 22.832C11.859 22.6295 11.8993 22.429 11.9774 22.2422C12.0556 22.0554 12.1702 21.886 12.3144 21.7438C12.4586 21.6017 12.6297 21.4896 12.8176 21.4142C13.0056 21.3387 13.2066 21.3014 13.4091 21.3044H14.3437C14.745 21.3102 15.1279 21.4737 15.4096 21.7596C15.6914 22.0455 15.8493 22.4307 15.8493 22.832C15.8493 23.2334 15.6914 23.6186 15.4096 23.9045C15.1279 24.1903 14.745 24.3539 14.3437 24.3597ZM13.4091 22.3428C13.3438 22.3411 13.2788 22.3526 13.218 22.3764C13.1572 22.4002 13.1017 22.436 13.055 22.4816C13.0082 22.5272 12.971 22.5817 12.9456 22.6419C12.9202 22.702 12.9071 22.7667 12.9071 22.832C12.9071 22.8974 12.9202 22.962 12.9456 23.0222C12.971 23.0824 13.0082 23.1369 13.055 23.1825C13.1017 23.2281 13.1572 23.2639 13.218 23.2877C13.2788 23.3115 13.3438 23.3229 13.4091 23.3212H14.3437C14.4713 23.318 14.5925 23.265 14.6816 23.1736C14.7707 23.0822 14.8205 22.9596 14.8205 22.832C14.8205 22.7044 14.7707 22.5819 14.6816 22.4905C14.5925 22.3991 14.4713 22.3461 14.3437 22.3428H13.4091Z" fill="#C6232F"/>
</svg>
