<svg width="32" height="32" viewBox="0 0 32 32" fill="none" xmlns="http://www.w3.org/2000/svg">
<path d="M7.88774 16.4243H6.93922C6.63969 16.4243 6.44 16.624 6.44 16.9235C6.44 17.2231 6.63969 17.4228 6.93922 17.4228H7.88774C8.18727 17.4228 8.38696 17.2231 8.38696 16.9235C8.38696 16.624 8.18727 16.4243 7.88774 16.4243Z" fill="#C6232F"/>
<path d="M12.1311 16.4243H11.1826C10.883 16.4243 10.6833 16.624 10.6833 16.9235C10.6833 17.2231 10.883 17.4228 11.1826 17.4228H12.1311C12.4306 17.4228 12.6303 17.2231 12.6303 16.9235C12.6303 16.624 12.3807 16.4243 12.1311 16.4243Z" fill="#C6232F"/>
<path d="M16.3246 16.4243H15.3761C15.0765 16.4243 14.8768 16.624 14.8768 16.9235C14.8768 17.2231 15.0765 17.4228 15.3761 17.4228H16.3246C16.6241 17.4228 16.8238 17.2231 16.8238 16.9235C16.8238 16.624 16.6241 16.4243 16.3246 16.4243Z" fill="#C6232F"/>
<path d="M20.5679 16.4243H19.6194C19.3199 16.4243 19.1202 16.624 19.1202 16.9235C19.1202 17.2231 19.3199 17.4228 19.6194 17.4228H20.5679C20.8674 17.4228 21.0671 17.2231 21.0671 16.9235C21.0671 16.624 20.8175 16.4243 20.5679 16.4243Z" fill="#C6232F"/>
<path d="M31.4509 25.8597C30.0031 25.8597 29.2543 26.4088 28.5554 26.9081C28.3058 27.1077 28.0062 27.3074 27.7067 27.4572C28.7551 25.4104 30.6022 21.816 31.5008 20.1686C31.6505 19.8691 31.6505 19.5196 31.4509 19.2201C31.2512 18.9205 30.9516 18.7209 30.6022 18.7209H24.6115V15.5758C24.6115 14.7271 23.9626 14.0781 23.1139 14.0781H17.922V9.18575C17.922 8.88622 17.7223 8.68653 17.4228 8.68653H13.5289C13.2293 8.68653 13.0296 8.88622 13.0296 9.18575V14.0781H10.7332V6.68965C10.7332 6.39012 10.5335 6.19043 10.234 6.19043H6.34009C6.04056 6.19043 5.84087 6.39012 5.84087 6.68965V14.0781H4.39314C3.54446 14.0781 2.89548 14.7271 2.89548 15.5758V18.7209H1.14821C0.848674 18.7209 0.549142 18.8706 0.349454 19.1202C0.199688 19.4198 0.149766 19.7193 0.24961 20.0188L2.34633 26.2092C1.89704 25.9595 1.29797 25.8098 0.49922 25.8098C0.199688 25.8098 0 26.0095 0 26.309C0 26.6085 0.199688 26.8082 0.49922 26.8082C1.5975 26.8082 2.14665 27.2076 2.79563 27.6569C3.44462 28.1561 4.19345 28.7052 5.69111 28.7052C8.43682 28.7052 8.53666 26.7583 10.8331 26.7583C13.1295 26.7583 13.2793 28.7052 15.975 28.7052C18.7207 28.7052 18.8206 26.7583 21.117 26.7583C22.2652 26.7583 22.7644 27.1577 23.4134 27.607C24.0624 28.1062 24.8612 28.6553 26.3089 28.6553H26.7083H26.8081C26.908 28.6553 26.9579 28.6553 27.0078 28.6054C28.0062 28.4556 28.6552 28.0063 29.2044 27.607C29.8034 27.1577 30.3526 26.7583 31.5008 26.7583C31.8003 26.7583 32 26.5586 32 26.2591C32 25.9595 31.7504 25.8597 31.4509 25.8597ZM16.9236 9.68497V10.6335H14.0281V9.68497H16.9236ZM14.078 11.6319H16.9735V14.128H14.078V11.6319ZM9.73479 7.18887V8.18731H6.83931V7.18887H9.73479ZM6.83931 9.23567H9.73479V14.128H6.83931V9.23567ZM3.89392 15.6257C3.89392 15.3262 4.0936 15.1265 4.39314 15.1265H23.064C23.3635 15.1265 23.5632 15.3262 23.5632 15.6257V18.7209H3.89392V15.6257ZM30.6521 19.7193C30.1529 20.6179 29.3541 22.1655 28.5554 23.7131H2.4961L1.14821 19.7193C27.3573 19.7193 -25.8097 19.7692 30.6521 19.7193ZM21.117 25.8597C18.3713 25.8597 18.2715 27.8067 15.975 27.8067C13.6786 27.8067 13.5289 25.8597 10.8331 25.8597C8.08736 25.8597 7.98752 27.8067 5.69111 27.8067C4.74259 27.8067 4.24337 27.5071 3.69423 27.1577L2.84555 24.7115H28.0562C27.4072 25.9595 26.858 27.0578 26.4587 27.8067C26.4087 27.8067 26.3588 27.8067 26.3089 27.8067C25.1607 27.8067 24.6615 27.4073 24.0125 26.958C23.3635 26.4088 22.5647 25.8597 21.117 25.8597Z" fill="#C6232F"/>
<path d="M31.4508 29.0049C28.7051 29.0049 28.6052 30.9518 26.3088 30.9518C24.0124 30.9518 23.9126 29.0049 21.1669 29.0049C18.4212 29.0049 18.3213 30.9518 16.0249 30.9518C13.7285 30.9518 13.5787 29.0049 10.8829 29.0049C8.13723 29.0049 8.03739 30.9518 5.74097 30.9518C4.64269 30.9518 4.09355 30.5525 3.44456 30.1032C2.79558 29.6039 2.04675 29.0548 0.549086 29.0548C0.249554 29.0548 0.0498657 29.2545 0.0498657 29.554C0.0498657 29.8536 0.249554 30.0532 0.549086 30.0532C1.64737 30.0532 2.19651 30.4526 2.8455 30.9019C3.49448 31.4011 4.24331 31.9503 5.74097 31.9503C8.48668 31.9503 8.58653 30.0033 10.8829 30.0033C13.1794 30.0033 13.3291 31.9503 16.0249 31.9503C18.7706 31.9503 18.8705 30.0033 21.1669 30.0033C23.4633 30.0033 23.6131 31.9503 26.3088 31.9503C29.0545 31.9503 29.1544 30.0033 31.4508 30.0033C32.0998 30.0033 32.0998 29.0049 31.4508 29.0049Z" fill="#C6232F"/>
<path d="M31.4508 0C29.0545 0 27.0077 0 24.6614 0H20.3182C20.0187 0 19.819 0.199688 19.819 0.49922V10.6833C19.819 10.9828 20.0187 11.1825 20.3182 11.1825H31.4508C31.7503 11.1825 31.95 10.9828 31.95 10.6833V0.49922C31.95 0.199688 31.7503 0 31.4508 0ZM26.6084 0.99844V2.9454L26.209 2.64587C26.1091 2.59594 26.0093 2.54602 25.9095 2.54602C25.8096 2.54602 25.7098 2.59594 25.6099 2.64587L25.2105 2.9454V0.99844H26.6084ZM20.8174 10.1841V9.38533H21.5163C21.8158 9.38533 22.0155 9.18565 22.0155 8.88612C22.0155 8.58658 21.8158 8.3869 21.5163 8.3869H20.8174V0.99844H24.1622V3.94384C24.1622 4.14353 24.262 4.29329 24.4617 4.39314C24.6115 4.49298 24.8112 4.44306 24.9609 4.34321L25.8595 3.64431L26.7581 4.34321C26.9079 4.44306 27.1076 4.49298 27.2573 4.39314C27.4071 4.29329 27.5569 4.14353 27.5569 3.94384V0.99844H30.9017V8.3869H30.2027C29.9032 8.3869 29.7035 8.58658 29.7035 8.88612C29.7035 9.18565 29.9032 9.38533 30.2027 9.38533H30.9017V10.1841H20.8174Z" fill="#C6232F"/>
<path d="M5.24174 22.2152H7.1887C7.48823 22.2152 7.68792 22.0155 7.68792 21.716C7.68792 21.4165 7.48823 21.2168 7.1887 21.2168H5.24174C4.94221 21.2168 4.74252 21.4165 4.74252 21.716C4.74252 22.0155 4.94221 22.2152 5.24174 22.2152Z" fill="#C6232F"/>
<path d="M11.7316 22.2152H13.6786C13.9781 22.2152 14.1778 22.0155 14.1778 21.716C14.1778 21.4165 13.9781 21.2168 13.6786 21.2168H11.7316C11.4321 21.2168 11.2324 21.4165 11.2324 21.716C11.2324 22.0155 11.482 22.2152 11.7316 22.2152Z" fill="#C6232F"/>
<path d="M18.2715 22.2152H20.2185C20.518 22.2152 20.7177 22.0155 20.7177 21.716C20.7177 21.4165 20.518 21.2168 20.2185 21.2168H18.2715C17.972 21.2168 17.7723 21.4165 17.7723 21.716C17.7723 22.0155 17.972 22.2152 18.2715 22.2152Z" fill="#C6232F"/>
<path d="M24.8113 22.2152H26.7083C27.0079 22.2152 27.2075 22.0155 27.2075 21.716C27.2075 21.4165 27.0079 21.2168 26.7083 21.2168H24.7614C24.4618 21.2168 24.2621 21.4165 24.2621 21.716C24.2621 22.0155 24.5118 22.2152 24.8113 22.2152Z" fill="#C6232F"/>
</svg>
