<svg width="33" height="33" viewBox="0 0 33 33" fill="none" xmlns="http://www.w3.org/2000/svg">
<path d="M11.5647 18.4428L10.645 18.2129V18.2123L7.45149 17.414L6.38699 17.1478V15.9668H10.645V5.32178H0V15.9668H3.1935V19.2827C2.7001 18.8798 2.07897 18.628 1.39343 18.628C0.625393 18.628 0 19.2534 0 20.0214C0 20.2354 0.051096 20.451 0.147433 20.6452L0.782939 21.9178C0.967097 22.2851 1.06397 22.6965 1.06397 23.1074V25.4919C1.06397 26.3334 1.35351 27.16 1.88044 27.8194L3.06842 29.3033C2.45473 30.2476 2.12847 31.3392 2.12847 32.466V32.9982H11.709V32.466C11.709 31.3387 11.3832 30.247 10.7695 29.3028L11.958 27.8184C12.4839 27.1594 12.7735 26.3334 12.7735 25.4914V19.9922C12.7745 19.2587 12.2774 18.6216 11.5647 18.4428ZM4.25853 6.38681H6.38753V7.45131H4.25853V6.38681ZM1.06503 14.9028V6.38681H3.19403V8.51581H7.45203V6.38681H9.58102V14.9028H6.38753V13.3061C6.38753 12.4257 5.67112 11.7093 4.79078 11.7093C3.91044 11.7093 3.19403 12.4257 3.19403 13.3061V14.9028H1.06503ZM3.2233 31.9343C3.3074 31.1864 3.5682 30.4695 3.99027 29.8367L4.01103 29.8053H9.82799L9.84928 29.8372C10.2708 30.4695 10.5311 31.1859 10.6152 31.9343H3.2233ZM11.71 25.4924C11.71 26.0939 11.503 26.6841 11.1277 27.1547L9.85779 28.7408H3.98176L2.71234 27.1552C2.33658 26.6836 2.129 26.0933 2.129 25.4924V23.108C2.129 22.5326 1.99274 21.9562 1.73567 21.442L1.10069 20.1705C1.07727 20.1231 1.06503 20.072 1.06503 20.022C1.06503 19.8405 1.21246 19.693 1.39396 19.693C2.38607 19.693 3.19403 20.501 3.19403 21.4936V22.3543V23.951H4.25853V22.3543V21.4936V13.3061C4.25853 13.0128 4.49698 12.7738 4.79078 12.7738C5.08458 12.7738 5.32303 13.0128 5.32303 13.3061V16.8822V23.951H6.38753V18.2459L7.45203 18.512V23.951H8.51652V18.7781L9.58102 19.0442V23.951H10.6455V19.3098L11.306 19.4754C11.544 19.535 11.71 19.7479 11.71 19.9927V25.4924Z" fill="#C6232F"/>
<path d="M30.3387 0H17.5647C16.0973 0 14.9035 1.19384 14.9035 2.66125V26.0802C14.9035 27.5476 16.0973 28.7415 17.5647 28.7415H30.3387C31.8062 28.7415 33 27.5476 33 26.0802V2.66125C33 1.19384 31.8056 0 30.3387 0ZM21.2905 1.0645H26.613V1.59675C26.613 1.89002 26.3745 2.129 26.0807 2.129H21.8227C21.5289 2.129 21.2905 1.89002 21.2905 1.59675V1.0645ZM31.9355 26.0797C31.9355 26.96 31.2191 27.6764 30.3387 27.6764H17.5647C16.6844 27.6764 15.968 26.96 15.968 26.0797V2.66072C15.968 1.78037 16.6844 1.06397 17.5647 1.06397H20.226V1.59622C20.226 2.47656 20.9424 3.19296 21.8227 3.19296H26.0807C26.9611 3.19296 27.6775 2.47656 27.6775 1.59622V1.06397H30.3387C31.2191 1.06397 31.9355 1.78037 31.9355 2.66072V26.0797Z" fill="#C6232F"/>
<path d="M25.5485 23.4185H22.355C21.768 23.4185 21.2905 23.8959 21.2905 24.483C21.2905 25.6571 22.2454 26.612 23.4195 26.612H24.484C25.6582 26.612 26.613 25.6571 26.613 24.483C26.613 23.8964 26.1351 23.4185 25.5485 23.4185ZM24.484 25.5475H23.4195C22.8325 25.5475 22.355 25.07 22.355 24.483H25.5485C25.5485 25.07 25.0706 25.5475 24.484 25.5475Z" fill="#C6232F"/>
<path d="M29.8065 4.25781H18.097C17.5099 4.25781 17.0325 4.73524 17.0325 5.32231V21.2898C17.0325 21.8769 17.5099 22.3543 18.097 22.3543H29.8065C30.3935 22.3543 30.871 21.8769 30.871 21.2898V5.32231C30.871 4.73524 30.393 4.25781 29.8065 4.25781ZM18.097 21.2893V5.32178H29.8065L29.8075 21.2893H18.097Z" fill="#C6232F"/>
<path d="M23.9518 10.645C21.3103 10.645 19.1616 12.7942 19.1616 15.4353C19.1616 18.0763 21.3103 20.2255 23.9518 20.2255C26.5934 20.2255 28.7421 18.0768 28.7421 15.4353C28.7421 12.7937 26.5934 10.645 23.9518 10.645ZM23.9518 19.1605C21.8979 19.1605 20.2261 17.4892 20.2261 15.4347C20.2261 13.3803 21.8979 11.709 23.9518 11.709C26.0058 11.709 27.6776 13.3803 27.6776 15.4347C27.6776 17.4892 26.0058 19.1605 23.9518 19.1605Z" fill="#C6232F"/>
<path d="M22.8872 16.2796L22.199 15.5914L21.4464 16.344L22.8872 17.7848L26.457 14.215L25.7044 13.4624L22.8872 16.2796Z" fill="#C6232F"/>
<path d="M19.1616 6.38721H28.7421V7.45171H19.1616V6.38721Z" fill="#C6232F"/>
<path d="M19.1616 8.51611H28.7421V9.58061H19.1616V8.51611Z" fill="#C6232F"/>
</svg>
