<svg width="41" height="41" viewBox="0 0 41 41" fill="none" xmlns="http://www.w3.org/2000/svg">
<path d="M14.3683 22.9142L13.2256 22.6285V22.6278L9.25792 21.6359L7.93536 21.3053V19.8379H13.2256V6.6123H0V19.8379H3.96768V23.9577C3.35467 23.4571 2.58296 23.1443 1.73123 23.1443C0.777004 23.1443 0 23.9213 0 24.8755C0 25.1414 0.0634829 25.4092 0.183175 25.6505L0.972742 27.2317C1.20155 27.6879 1.3219 28.1991 1.3219 28.7096V31.6722C1.3219 32.7176 1.68163 33.7446 2.3363 34.5639L3.81228 36.4076C3.04982 37.5807 2.64446 38.937 2.64446 40.3369V40.9982H14.5475V40.3369C14.5475 38.9363 14.1428 37.58 13.3803 36.4069L14.857 34.5626C15.5103 33.7439 15.8701 32.7176 15.8701 31.6715V24.8392C15.8714 23.9279 15.2537 23.1364 14.3683 22.9142ZM5.2909 7.93553H7.93602V9.25809H5.2909V7.93553ZM1.32322 18.516V7.93553H3.96834V10.5806H9.25858V7.93553H11.9037V18.516H7.93602V16.5322C7.93602 15.4384 7.04594 14.5483 5.95218 14.5483C4.85842 14.5483 3.96834 15.4384 3.96834 16.5322V18.516H1.32322ZM4.00471 39.6763C4.10919 38.7472 4.43322 37.8564 4.95761 37.0702L4.9834 37.0312H12.2105L12.237 37.0708C12.7607 37.8564 13.0841 38.7465 13.1886 39.6763H4.00471ZM14.5488 31.6728C14.5488 32.4201 14.2916 33.1534 13.8254 33.738L12.2476 35.7086H4.94703L3.36988 33.7387C2.90302 33.1528 2.64512 32.4194 2.64512 31.6728V28.7103C2.64512 27.9954 2.47583 27.2793 2.15643 26.6405L1.36753 25.0607C1.33843 25.0018 1.32322 24.9383 1.32322 24.8762C1.32322 24.6507 1.5064 24.4675 1.73189 24.4675C2.96452 24.4675 3.96834 25.4713 3.96834 26.7046V27.7739V29.7578H5.2909V27.7739V26.7046V16.5322C5.2909 16.1678 5.58715 15.8709 5.95218 15.8709C6.3172 15.8709 6.61346 16.1678 6.61346 16.5322V20.9753V29.7578H7.93602V22.6695L9.25858 23.0001V29.7578H10.5811V23.3308L11.9037 23.6614V29.7578H13.2263V23.9914L14.0469 24.1971C14.3425 24.2711 14.5488 24.5356 14.5488 24.8398V31.6728Z" fill="#0D2B5C"/>
<path d="M37.6937 0H21.823C19.9999 0 18.5166 1.48325 18.5166 3.3064V32.4027C18.5166 34.2259 19.9999 35.7091 21.823 35.7091H37.6937C39.5169 35.7091 41.0001 34.2259 41.0001 32.4027V3.3064C41.0001 1.48325 39.5162 0 37.6937 0ZM26.452 1.32256H33.0648V1.98384C33.0648 2.3482 32.7685 2.64512 32.4035 2.64512H27.1132C26.7482 2.64512 26.452 2.3482 26.452 1.98384V1.32256ZM39.6775 32.402C39.6775 33.4958 38.7875 34.3859 37.6937 34.3859H21.823C20.7292 34.3859 19.8392 33.4958 19.8392 32.402V3.30574C19.8392 2.21198 20.7292 1.3219 21.823 1.3219H25.1294V1.98318C25.1294 3.07693 26.0195 3.96702 27.1132 3.96702H32.4035C33.4972 3.96702 34.3873 3.07693 34.3873 1.98318V1.3219H37.6937C38.7875 1.3219 39.6775 2.21198 39.6775 3.30574V32.402Z" fill="#0D2B5C"/>
<path d="M31.7421 29.0957H27.7745C27.0451 29.0957 26.4519 29.6889 26.4519 30.4183C26.4519 31.877 27.6382 33.0634 29.097 33.0634H30.4196C31.8784 33.0634 33.0647 31.877 33.0647 30.4183C33.0647 29.6895 32.4709 29.0957 31.7421 29.0957ZM30.4196 31.7408H29.097C28.3676 31.7408 27.7745 31.1477 27.7745 30.4183H31.7421C31.7421 31.1477 31.1483 31.7408 30.4196 31.7408Z" fill="#0D2B5C"/>
<path d="M37.0322 5.29004H22.4841C21.7547 5.29004 21.1615 5.88321 21.1615 6.6126V26.451C21.1615 27.1804 21.7547 27.7735 22.4841 27.7735H37.0322C37.7616 27.7735 38.3548 27.1804 38.3548 26.451V6.6126C38.3548 5.88321 37.7609 5.29004 37.0322 5.29004ZM22.4841 26.4503V6.61194H37.0322L37.0335 26.4503H22.4841Z" fill="#0D2B5C"/>
<path d="M29.7584 13.2256C26.4765 13.2256 23.8069 15.8958 23.8069 19.1771C23.8069 22.4584 26.4765 25.1286 29.7584 25.1286C33.0403 25.1286 35.7099 22.459 35.7099 19.1771C35.7099 15.8952 33.0403 13.2256 29.7584 13.2256ZM29.7584 23.8054C27.2065 23.8054 25.1294 21.729 25.1294 19.1764C25.1294 16.6239 27.2065 14.5475 29.7584 14.5475C32.3103 14.5475 34.3874 16.6239 34.3874 19.1764C34.3874 21.729 32.3103 23.8054 29.7584 23.8054Z" fill="#0D2B5C"/>
<path d="M28.4356 20.2257L27.5806 19.3707L26.6455 20.3058L28.4356 22.0958L32.8708 17.6606L31.9357 16.7256L28.4356 20.2257Z" fill="#0D2B5C"/>
<path d="M23.8069 7.93506H35.7099V9.25762H23.8069V7.93506Z" fill="#0D2B5C"/>
<path d="M23.8069 10.5801H35.7099V11.9026H23.8069V10.5801Z" fill="#0D2B5C"/>
</svg>
