<svg width="32" height="32" viewBox="0 0 32 32" fill="none" xmlns="http://www.w3.org/2000/svg">
<path d="M22.8989 24.4206C23.3482 24.4206 23.7124 24.0563 23.7124 23.607C23.7124 23.1577 23.3482 22.7935 22.8989 22.7935C22.4496 22.7935 22.0853 23.1577 22.0853 23.607C22.0853 24.0563 22.4496 24.4206 22.8989 24.4206Z" fill="#C6232F"/>
<path d="M22.8989 15.986C23.3482 15.986 23.7124 15.6218 23.7124 15.1724C23.7124 14.7231 23.3482 14.3589 22.8989 14.3589C22.4496 14.3589 22.0853 14.7231 22.0853 15.1724C22.0853 15.6218 22.4496 15.986 22.8989 15.986Z" fill="#C6232F"/>
<path d="M25.6152 24.4206C26.0645 24.4206 26.4288 24.0563 26.4288 23.607C26.4288 23.1577 26.0645 22.7935 25.6152 22.7935C25.1659 22.7935 24.8016 23.1577 24.8016 23.607C24.8016 24.0563 25.1659 24.4206 25.6152 24.4206Z" fill="#C6232F"/>
<path d="M23.1019 11.3823H19.3064C18.857 11.3823 18.4928 11.7466 18.4928 12.1959C18.4928 12.6452 18.857 13.0094 19.3064 13.0094H23.1019C23.5512 13.0094 23.9154 12.6452 23.9154 12.1959C23.9154 11.7466 23.5512 11.3823 23.1019 11.3823Z" fill="#C6232F"/>
<path d="M10.3213 26.1249C8.71484 26.6585 7.07578 25.8515 6.42711 24.54C6.14724 23.9749 6.54534 23.3088 7.17667 23.3078H7.34697C7.67565 23.3078 7.93599 23.5323 8.06399 23.835C8.27009 24.322 8.7528 24.6648 9.31362 24.6648C10.061 24.6648 10.6695 24.0562 10.6695 23.3089C10.6695 22.5918 10.1109 22.0039 9.4069 21.9562C8.077 21.8661 6.82955 21.1339 6.45856 19.8529C5.87389 17.8331 7.38168 15.9868 9.31253 15.9868C10.5914 15.9868 11.7359 16.796 12.1817 17.9274C12.3791 18.4275 11.9875 18.9699 11.4495 18.9688H11.2792C10.9505 18.9688 10.6912 18.7432 10.5632 18.4416C10.3571 17.9556 9.87551 17.6139 9.3147 17.6139C8.56731 17.6139 7.95877 18.2225 7.95877 18.9688C7.95877 19.7151 8.56731 20.3258 9.3147 20.3258C11.2553 20.3258 12.7674 22.1872 12.1622 24.2179C11.8986 25.1019 11.1989 25.8341 10.3235 26.1249H10.3213Z" fill="#C6232F"/>
<path d="M8.49988 16.7992V15.529C8.4988 15.0799 8.86218 14.7154 9.31235 14.7144C9.76144 14.7144 10.1259 15.0777 10.1259 15.5268V16.7971H8.49988V16.7992Z" fill="#C6232F"/>
<path d="M9.31246 27.6465C8.86338 27.6465 8.4989 27.2821 8.4989 26.833V25.4771H10.126V26.833C10.126 27.2821 9.76155 27.6465 9.31246 27.6465Z" fill="#C6232F"/>
<path d="M9.32554 31.9987C8.92201 31.9987 8.51415 31.9727 8.1052 31.9174C3.92459 31.3609 0.714826 27.7736 0.469674 23.3869L0.0498771 15.8404C0.00323301 14.9943 0.539098 14.2414 1.3852 13.9692C2.16622 13.7175 2.78235 13.0721 2.99171 12.2856C3.22059 11.4244 3.94628 10.8462 4.79564 10.8462H13.8283C14.6777 10.8462 15.4023 11.4244 15.6322 12.2856C15.8416 13.0721 16.4577 13.7164 17.2398 13.9692C18.0827 14.2414 18.6196 14.9921 18.5741 15.8382L18.1402 23.6494C18.0035 26.101 16.8396 28.405 14.9467 29.9713C13.3424 31.2991 11.3822 31.9987 9.32554 31.9987ZM4.79672 12.4733C4.67198 12.4733 4.59388 12.5981 4.56567 12.7054C4.20988 14.0397 3.20866 15.0919 1.88635 15.5182C1.805 15.5442 1.6694 15.6223 1.677 15.7492L2.09679 23.2958C2.29747 26.9037 4.91496 29.852 8.32215 30.3054C10.3604 30.5766 12.3444 30.0126 13.9097 28.7174C15.4544 27.4396 16.4046 25.5597 16.5152 23.5583L16.9491 15.7492C16.9556 15.631 16.8407 15.5507 16.7398 15.5182C15.4175 15.0919 14.4152 14.0408 14.0594 12.7054C14.0312 12.5981 13.9531 12.4733 13.8283 12.4733H4.79672Z" fill="#C6232F"/>
<path d="M23.59 21.1525L20.6123 21.1504C20.1633 21.1504 19.7988 20.7848 19.7999 20.3357C19.7999 19.8866 20.1654 19.5233 20.6145 19.5233L23.5921 19.5254C24.9361 19.5265 26.035 18.4287 26.035 17.0847V4.0678C26.035 2.71946 24.9426 1.62712 23.5943 1.62712H4.0678C2.71946 1.62712 1.62712 2.71946 1.62712 4.0678V11.1208C1.62712 11.5699 1.26264 11.9344 0.813559 11.9344C0.364475 11.9344 0 11.5699 0 11.1208V4.0678C0 1.82129 1.82129 0 4.0678 0H23.5932C25.8397 0 27.661 1.82129 27.661 4.0678V17.0847C27.661 19.3237 25.8289 21.1547 23.59 21.1525Z" fill="#C6232F"/>
<path d="M27.9321 27.6608H20.0677C19.6186 27.6608 19.2542 27.2964 19.2542 26.8473C19.2542 26.3982 19.6186 26.0337 20.0677 26.0337H27.9321C29.2805 26.0337 30.3728 24.9414 30.3728 23.593V10.5761C30.3728 9.22776 29.2805 8.13542 27.9321 8.13542H26.8474V6.5083H27.9321C30.1786 6.5083 31.9999 8.32959 31.9999 10.5761V23.593C31.9999 25.8396 30.1786 27.6608 27.9321 27.6608Z" fill="#C6232F"/>
<path d="M0.836426 5.4248H26.8226V7.05192H0.836426V5.4248Z" fill="#C6232F"/>
<path d="M26.8224 12.4028H31.1863V14.03H26.8224V12.4028Z" fill="#C6232F"/>
</svg>
